<svg id="Layer_1" data-name="Layer 1" xmlns="http://www.w3.org/2000/svg" viewBox="0 0 214.1 52.2"><g id="_6ff5e1c3-6e3f-46dd-9c6c-e74732b77ea2" data-name=" 6ff5e1c3-6e3f-46dd-9c6c-e74732b77ea2"><path d="M75.2,15.9h0a18.3,18.3,0,0,1,.5,4h0a13.1,13.1,0,0,1-.7,4.4h0a7.9,7.9,0,0,1-2.4,3.5h0a5.3,5.3,0,0,1-3.8,1.3h0a4.2,4.2,0,0,1-3.7-1.6h-.2a.3.3,0,0,0-.1.2h0v7h0a.6.6,0,0,1-.1.4h0l-.4.2H60l-.4-.2h0a.8.8,0,0,1-.2-.4h0V11.5h0c0-.2.1-.3.2-.5h5.1a.9.9,0,0,1,.1.5h0v.8h0c0,.1,0,.2.1.2h.2a4.1,4.1,0,0,1,3.7-1.8h0a5.6,5.6,0,0,1,3.9,1.5h0a7.5,7.5,0,0,1,2.5,3.8Zm-5.9,6.9h0a7.3,7.3,0,0,0,.6-3h0a7.1,7.1,0,0,0-.6-2.8h0a2.1,2.1,0,0,0-2-1.3h0A2.1,2.1,0,0,0,65.4,17h0a6.9,6.9,0,0,0-.5,2.8h0a5.6,5.6,0,0,0,.6,3.1h0a2.1,2.1,0,0,0,1.8,1.2h0a2.2,2.2,0,0,0,2-1.2ZM84.7,10.6h0a8.7,8.7,0,0,1,3.9.7h0a7.4,7.4,0,0,1,2.8,2.2h0a5.5,5.5,0,0,1,1,3.1h0V28.2h0a.8.8,0,0,1-.2.4h0l-.4.2H87.6l-.5-.2h0a.6.6,0,0,1-.1-.4h0v-.6h0c0-.2,0-.2-.1-.3h0s-.1,0-.2.2h0a4.7,4.7,0,0,1-4.2,1.6h0a6,6,0,0,1-4.1-1.2h0A5.1,5.1,0,0,1,76.9,24h0a4.9,4.9,0,0,1,1.7-4.1h0a7.6,7.6,0,0,1,5-1.5h3.1c.1,0,.2,0,.3-.2h0v-.6h0a2,2,0,0,0-.6-1.5h0a2.5,2.5,0,0,0-1.6-.6h0a2.8,2.8,0,0,0-1.3.3h0a2.7,2.7,0,0,0-.8.7h0l-.3.4H82l-4.3-.6h0c-.4,0-.6-.2-.6-.5h0a6.6,6.6,0,0,1,1.2-2.7h0A7.4,7.4,0,0,1,81,11.3h0a9.4,9.4,0,0,1,3.7-.7ZM84.1,25h0a3.2,3.2,0,0,0,2-.7h0a2.3,2.3,0,0,0,.9-1.8h0v-.8h0a.2.2,0,0,0-.2-.2H84.9a3,3,0,0,0-1.9.4h0a1.3,1.3,0,0,0-.7,1.4h0a1.5,1.5,0,0,0,.5,1.2h0a1.9,1.9,0,0,0,1.3.5Zm26.7-9h0a13.4,13.4,0,0,1,.6,4h0a12.9,12.9,0,0,1-.7,4.3h0a7.9,7.9,0,0,1-2.4,3.5h0a5.9,5.9,0,0,1-3.8,1.4h0a4.2,4.2,0,0,1-3.7-1.7h-.2a.3.3,0,0,0-.1.2h0v7h0c.1.1,0,.3-.1.4h0l-.5.2H95.7l-.4-.2h0c-.1-.1-.2-.3-.1-.4h0V11.5h0a.9.9,0,0,1,.1-.5h5.1c.1.2.2.3.2.5h0v.8h0v.2h.2a4.3,4.3,0,0,1,3.7-1.8h0a5.4,5.4,0,0,1,3.9,1.5h0a7.5,7.5,0,0,1,2.5,3.8ZM105,22.9h0a8,8,0,0,0,.6-3h0A7.2,7.2,0,0,0,105,17h0a2.1,2.1,0,0,0-2-1.3h0a2.1,2.1,0,0,0-1.9,1.3h0a5.8,5.8,0,0,0-.5,2.9h0a6.1,6.1,0,0,0,.5,3h0a2.2,2.2,0,0,0,1.9,1.2h0a2.2,2.2,0,0,0,2-1.2Zm16.8,1.3h0a5.8,5.8,0,0,0,1.9-.3h0a4.2,4.2,0,0,0,1.4-.9h0l.5-.2h0l.4.2h0l2,2.6h0a.6.6,0,0,1,.1.4h0a.7.7,0,0,1-.1.5h0a8.1,8.1,0,0,1-2.9,1.9h0a8.6,8.6,0,0,1-3.6.7h0a8.8,8.8,0,0,1-3.9-.8h0a8.1,8.1,0,0,1-2.8-2.4h0a9.8,9.8,0,0,1-1.8-6.2h0a11,11,0,0,1,.4-3.1h0a8,8,0,0,1,2.8-4.4h0a7.7,7.7,0,0,1,4.8-1.6h0a7,7,0,0,1,5.3,2.1h0a10.5,10.5,0,0,1,2.6,6h0a14.9,14.9,0,0,1,.2,2.1h0a.5.5,0,0,1-.6.6h-10v.2h0l.2.7h0a2.4,2.4,0,0,0,1.1,1.3h0a3.5,3.5,0,0,0,2,.5Zm-.8-8.7h0a2.4,2.4,0,0,0-2.3,1.7h0a1.3,1.3,0,0,0-.1.5h0c0,.2,0,.2.2.2h4.5c0,.1.1,0,.1-.1h0c.1,0,.1-.1,0-.2h0v-.4h0a2.6,2.6,0,0,0-.8-1.3h0a3,3,0,0,0-1.5-.5Zm19.3-4.9h0a3.3,3.3,0,0,1,1.7.4h0a.8.8,0,0,1,.3.8h0l-.7,4.4h0a.5.5,0,0,1-.4.5h-1.3a2.2,2.2,0,0,0-.8,0h0a3.2,3.2,0,0,0-1.7.9h0a2.4,2.4,0,0,0-.7,1.8h0v8.9h0a.8.8,0,0,1-.2.5h0a.5.5,0,0,1-.4.2h-4.2a.5.5,0,0,1-.4-.2h0a.8.8,0,0,1-.2-.5h0V11.5h0c0-.2.1-.3.2-.5h5.1a.9.9,0,0,1,.1.5h0v.7h0c0,.2,0,.2.1.3h.2a4,4,0,0,1,3.3-1.8Zm13.2,0h0a5.9,5.9,0,0,1,4.2,1.7h0a6.7,6.7,0,0,1,1.6,4.7h0V28.2h0a.8.8,0,0,1-.2.5h0l-.4.2h-4.3l-.4-.2h0a.7.7,0,0,1-.1-.5h0v-10h0a3.6,3.6,0,0,0-.6-2h0a2.4,2.4,0,0,0-1.6-.7h0a2.4,2.4,0,0,0-1.7.7h0a3.6,3.6,0,0,0-.6,2h0v10h0c0,.2,0,.4-.2.5h0a.5.5,0,0,1-.4.2h-4.2l-.4-.2h0a.8.8,0,0,1-.2-.5h0V11.5h0c0-.2.1-.3.2-.5h5a.6.6,0,0,1,.2.5h0v1h0c0,.1,0,.2.1.2h.1a4.5,4.5,0,0,1,3.9-2Zm16.1,18.5h0a7.5,7.5,0,0,1-5-1.6h0a8.4,8.4,0,0,1-2.7-4.5h0a11.7,11.7,0,0,1-.4-3.2h0a12.4,12.4,0,0,1,.4-3.3h0a7.7,7.7,0,0,1,2.8-4.3h0a8,8,0,0,1,4.9-1.6h0a7.8,7.8,0,0,1,4.9,1.6h0a8.3,8.3,0,0,1,2.7,4.2h0a12.7,12.7,0,0,1,.5,3.4h0a10.3,10.3,0,0,1-.4,3h0a8.1,8.1,0,0,1-2.7,4.7h0a7.5,7.5,0,0,1-5,1.6Zm0-4.9h0a2.3,2.3,0,0,0,1.6-.6h0a3.1,3.1,0,0,0,.9-1.8h0a12.3,12.3,0,0,0,.2-2h0a15,15,0,0,0-.2-2h0a4.2,4.2,0,0,0-.9-1.6h0a2.3,2.3,0,0,0-1.6-.6h0a2,2,0,0,0-1.6.6h0a3,3,0,0,0-.8,1.6h0a4.7,4.7,0,0,0-.2,2h0a12.7,12.7,0,0,0,.1,2h0a4,4,0,0,0,1,1.8h0A2,2,0,0,0,169.6,24.2Zm20.5-19h0a.5.5,0,0,1,.2-.4h0a.4.4,0,0,1,.4-.2H195a.4.4,0,0,1,.4.2h0a.5.5,0,0,1,.2.4h0V28.3h0a.8.8,0,0,1-.2.4h0a.4.4,0,0,1-.4.2h-4.3l-.4-.2h0a.8.8,0,0,1-.2-.4h0v-.9h0v-.2h-.2a4,4,0,0,1-3.7,1.9h0a6.1,6.1,0,0,1-3.9-1.5h0a7.8,7.8,0,0,1-2.5-3.9h0a17.5,17.5,0,0,1-.5-4h0a13.5,13.5,0,0,1,.7-4.4h0a9.2,9.2,0,0,1,2.4-3.5h0a6.5,6.5,0,0,1,3.8-1.3h0a4.3,4.3,0,0,1,3.7,1.5h0c0,.1.1.2.2.1h0Zm-.5,17.6h0a5.8,5.8,0,0,0,.5-2.9h0a5.4,5.4,0,0,0-.6-3h0a2.1,2.1,0,0,0-1.9-1.2h0a2.2,2.2,0,0,0-1.9,1.2h0a8,8,0,0,0-.6,3h0a7.2,7.2,0,0,0,.6,2.9h0a2.1,2.1,0,0,0,2,1.3h0a2.1,2.1,0,0,0,1.9-1.3Zm17.2,1.5h0a4.1,4.1,0,0,0,1.9-.4h0a2.9,2.9,0,0,0,1.4-.8h0a.5.5,0,0,1,.5-.3h0a.5.5,0,0,1,.4.3h0l2,2.5h0a.9.9,0,0,1,.1.5h0c0,.2,0,.3-.1.4h0a7.2,7.2,0,0,1-2.9,2h0a8.6,8.6,0,0,1-3.6.7h0a8.9,8.9,0,0,1-3.9-.9h0a6.5,6.5,0,0,1-2.8-2.4h0a9.5,9.5,0,0,1-1.8-6.1h0a11.7,11.7,0,0,1,.4-3.2h0a7.7,7.7,0,0,1,2.8-4.3h0a7.8,7.8,0,0,1,4.8-1.7h0a7.1,7.1,0,0,1,5.3,2.2h0a10.5,10.5,0,0,1,2.6,6h0a12.5,12.5,0,0,1,.2,2.1h0a.5.5,0,0,1-.6.6h-10v.2h0l.2.7h0a2.5,2.5,0,0,0,1.2,1.3h0a4.6,4.6,0,0,0,2,.5Zm-.8-8.7h0a2.4,2.4,0,0,0-2.3,1.7h0c0,.2-.1.3-.1.5h0c0,.1,0,.2.2.2h4.5a.1.1,0,0,0,.1-.1h0v-.2h0v-.4h0a2.4,2.4,0,0,0-.9-1.3h0a1.9,1.9,0,0,0-1.4-.5Z"/></g><path d="M26,0,22,.3h-.1A26.1,26.1,0,1,0,51.8,22,25.9,25.9,0,0,0,26,.1ZM20.6,28.8l-1.3-.5a66.1,66.1,0,0,1,.8-9.9,5.5,5.5,0,0,0,3.6-2.5,38.7,38.7,0,0,1,10.7,5c-.1.2-.1.5-.2.8A42.1,42.1,0,0,0,20.6,28.8Zm-5.4,9.6,1.6.7a66.8,66.8,0,0,0,1.7,8.7,26.9,26.9,0,0,1-7.2-4.1A51.7,51.7,0,0,1,15.2,38.4ZM45.1,23.2h3.7a26.4,26.4,0,0,1,.2,2.8,18.1,18.1,0,0,1-.4,4,64,64,0,0,0-4.2-4.9A4.8,4.8,0,0,0,45.1,23.2Zm3.1-3.1H44.5a5.6,5.6,0,0,0-4.9-3,6.1,6.1,0,0,0-3.4,1.2,42.1,42.1,0,0,0-11.8-5.4,5.1,5.1,0,0,0-2.1-4.1,42.9,42.9,0,0,1,1.9-5.4h1.9A22.9,22.9,0,0,1,48.2,20.1ZM20.5,3.9,19.3,7.6H19a5.4,5.4,0,0,0-5.2,3.7,35.2,35.2,0,0,0-5.6.4A23.1,23.1,0,0,1,20.5,3.9ZM3.1,26.1A22.4,22.4,0,0,1,5.8,15.4a34.6,34.6,0,0,1,7.8-.9,6,6,0,0,0,3.3,3.7,71.7,71.7,0,0,0-.8,10.4A5.6,5.6,0,0,0,13,35.8c.1,0,.1.1.1.2A42.6,42.6,0,0,0,9,41.4,22.7,22.7,0,0,1,3.1,26.1ZM26,49l-4-.3a65.5,65.5,0,0,1-2-9.8,5.4,5.4,0,0,0,3.7-5.2A6.8,6.8,0,0,0,23,31a42.1,42.1,0,0,1,11.7-6.1,5.5,5.5,0,0,0,7.5,2.6,48.8,48.8,0,0,1,5.3,6.7A23,23,0,0,1,26,49Z" fill="#288b58"/></svg>