<svg id="Layer_1" data-name="Layer 1" xmlns="http://www.w3.org/2000/svg" xmlns:xlink="http://www.w3.org/1999/xlink" viewBox="0 0 47.7 50.1"><defs><linearGradient id="linear-gradient" x1="-545.96" y1="402.85" x2="-545.96" y2="401.85" gradientTransform="matrix(47.69, 0, 0, -50.1, 26060.1, 20184.64)" gradientUnits="userSpaceOnUse"><stop offset="0" stop-color="#fc8601"/><stop offset="1" stop-color="#ea1414"/></linearGradient></defs><path d="M43.9,14.4c-2,8.7-7.3,9.6-7.6,7C34.9,10.7,48.4,10.9,47.7,0c-2.2,7.9-9.8,6.5-14,12S31,8.7,31.6,6.6C24.4,9.8,28.7,18.2,25.9,20c-.7.4-2.1.1-2.8-4.1s3.2-9.7,5-10.9c-2.2-.1-9,4.2-9.5,9.4s-6.9,11.4-8.8,9.5,6.8-5.4,5.5-9.5C12.9,20.9,2.3,15.8.4,27.1-2.3,42.6,9.9,47.4,9.9,47.4a33.4,33.4,0,0,0,4.4,1.7,4.9,4.9,0,0,1-1.2-1.3c-2.3-3.4.8-5,3.3-6.6-.7,2.3,2.4,5.7,3.3,3.9s2.9-8.5,5.8-9.1c-1.6,2.5,1.4,10.6-2.1,14.1A52,52,0,0,0,30.1,49c7.2-1.7,13.1-10.4,15.1-17.3-11.5,10.2-.7-8.6-1.3-17.3ZM3.6,24.5c-2.3,3.2-2.3,9.7-2.2,11.2a16,16,0,0,1,.6-11c2-4.9,9.8-6.5,9.8-6.5C7.1,20.5,5,22.5,3.6,24.5Z" fill="url(#linear-gradient)"/></svg>